<mxfile host="app.diagrams.net" modified="2023-06-06T14:21:40.513Z" agent="Mozilla/5.0 (Windows NT 10.0; Win64; x64) AppleWebKit/537.36 (KHTML, like Gecko) Chrome/114.0.0.0 Safari/537.36" etag="UJyvQx3IrAu3s6jOVL3b" version="21.3.7" type="google">
  <diagram name="Page-1" id="ibF_jcCVvxsTOsh4SAsj">
    <mxGraphModel grid="1" page="1" gridSize="10" guides="1" tooltips="1" connect="1" arrows="1" fold="1" pageScale="1" pageWidth="850" pageHeight="1100" math="0" shadow="0">
      <root>
        <mxCell id="0" />
        <mxCell id="1" parent="0" />
        <mxCell id="9l8rEriheZmPfH-iLeSf-1" value="" style="endArrow=block;startArrow=classic;html=1;rounded=0;entryX=0.5;entryY=1;entryDx=0;entryDy=0;endFill=1;strokeWidth=9;" edge="1" parent="1" target="a5ivobwAdbOrBLl5-m_z-22">
          <mxGeometry width="50" height="50" relative="1" as="geometry">
            <mxPoint x="325" y="1020" as="sourcePoint" />
            <mxPoint x="420" y="940" as="targetPoint" />
          </mxGeometry>
        </mxCell>
        <mxCell id="a5ivobwAdbOrBLl5-m_z-22" value="&lt;b&gt;&lt;font style=&quot;font-size: 18px;&quot;&gt;RoBERTa&lt;/font&gt;&lt;/b&gt;" style="rounded=1;whiteSpace=wrap;html=1;fillColor=#fff2cc;strokeColor=#d6b656;" vertex="1" parent="1">
          <mxGeometry x="250" y="850" width="150" height="60" as="geometry" />
        </mxCell>
        <mxCell id="a5ivobwAdbOrBLl5-m_z-37" value="&lt;b&gt;&lt;font style=&quot;font-size: 14px;&quot;&gt;Title_hidden&lt;/font&gt;&lt;/b&gt;" style="rounded=0;whiteSpace=wrap;html=1;fillColor=#f8cecc;strokeColor=#b85450;" vertex="1" parent="1">
          <mxGeometry x="440" y="860" width="120" height="40" as="geometry" />
        </mxCell>
        <mxCell id="a5ivobwAdbOrBLl5-m_z-42" value="&lt;b&gt;&lt;font style=&quot;font-size: 14px;&quot;&gt;Cosine embedding Loss&lt;/font&gt;&lt;/b&gt;" style="rounded=0;whiteSpace=wrap;html=1;" vertex="1" parent="1">
          <mxGeometry x="422.5" y="945" width="155" height="40" as="geometry" />
        </mxCell>
        <mxCell id="a5ivobwAdbOrBLl5-m_z-47" value="&lt;b&gt;&lt;font style=&quot;font-size: 18px;&quot;&gt;RoBERTa&lt;/font&gt;&lt;/b&gt;" style="rounded=1;whiteSpace=wrap;html=1;fillColor=#fff2cc;strokeColor=#d6b656;" vertex="1" parent="1">
          <mxGeometry x="250" y="1020" width="150" height="60" as="geometry" />
        </mxCell>
        <mxCell id="a5ivobwAdbOrBLl5-m_z-49" value="&lt;b style=&quot;border-color: var(--border-color);&quot;&gt;&lt;font style=&quot;font-size: 13px;&quot;&gt;Paragraph_hidden&lt;/font&gt;&lt;/b&gt;" style="rounded=0;whiteSpace=wrap;html=1;fillColor=#f8cecc;strokeColor=#b85450;" vertex="1" parent="1">
          <mxGeometry x="440" y="1030" width="120" height="40" as="geometry" />
        </mxCell>
        <mxCell id="a5ivobwAdbOrBLl5-m_z-52" value="" style="shape=orEllipse;perimeter=ellipsePerimeter;whiteSpace=wrap;html=1;backgroundOutline=1;strokeWidth=2;" vertex="1" parent="1">
          <mxGeometry x="620" y="940" width="50" height="50" as="geometry" />
        </mxCell>
        <mxCell id="a5ivobwAdbOrBLl5-m_z-53" value="&lt;b&gt;&lt;font style=&quot;font-size: 14px;&quot;&gt;Fully Connected&lt;/font&gt;&lt;/b&gt;" style="rounded=0;whiteSpace=wrap;html=1;fillColor=#f8cecc;strokeColor=#b85450;rotation=90;" vertex="1" parent="1">
          <mxGeometry x="620" y="945" width="200" height="40" as="geometry" />
        </mxCell>
        <mxCell id="a5ivobwAdbOrBLl5-m_z-54" value="&lt;b&gt;&lt;font style=&quot;font-size: 14px;&quot;&gt;Fully Connected&lt;/font&gt;&lt;/b&gt;" style="rounded=0;whiteSpace=wrap;html=1;fillColor=#f8cecc;strokeColor=#b85450;rotation=90;" vertex="1" parent="1">
          <mxGeometry x="690" y="944" width="200" height="40" as="geometry" />
        </mxCell>
        <mxCell id="a5ivobwAdbOrBLl5-m_z-55" value="&lt;b&gt;&lt;font style=&quot;font-size: 14px;&quot;&gt;Fully Connected&lt;/font&gt;&lt;/b&gt;" style="rounded=0;whiteSpace=wrap;html=1;fillColor=#f8cecc;strokeColor=#b85450;rotation=90;" vertex="1" parent="1">
          <mxGeometry x="760" y="944" width="200" height="40" as="geometry" />
        </mxCell>
        <mxCell id="a5ivobwAdbOrBLl5-m_z-56" value="&lt;b&gt;&lt;font style=&quot;font-size: 14px;&quot;&gt;Cross Entropy Loss&lt;/font&gt;&lt;/b&gt;" style="rounded=0;whiteSpace=wrap;html=1;" vertex="1" parent="1">
          <mxGeometry x="920" y="944" width="155" height="40" as="geometry" />
        </mxCell>
        <mxCell id="a5ivobwAdbOrBLl5-m_z-58" value="" style="endArrow=classic;html=1;rounded=0;exitX=1;exitY=0.5;exitDx=0;exitDy=0;entryX=0;entryY=0.5;entryDx=0;entryDy=0;strokeWidth=3;" edge="1" parent="1" source="a5ivobwAdbOrBLl5-m_z-22" target="a5ivobwAdbOrBLl5-m_z-37">
          <mxGeometry width="50" height="50" relative="1" as="geometry">
            <mxPoint x="190" y="890" as="sourcePoint" />
            <mxPoint x="260" y="890" as="targetPoint" />
          </mxGeometry>
        </mxCell>
        <mxCell id="a5ivobwAdbOrBLl5-m_z-59" value="" style="endArrow=classic;html=1;rounded=0;exitX=1;exitY=0.5;exitDx=0;exitDy=0;entryX=0;entryY=0.5;entryDx=0;entryDy=0;strokeWidth=3;" edge="1" parent="1" source="a5ivobwAdbOrBLl5-m_z-47" target="a5ivobwAdbOrBLl5-m_z-49">
          <mxGeometry width="50" height="50" relative="1" as="geometry">
            <mxPoint x="410" y="890" as="sourcePoint" />
            <mxPoint x="450" y="890" as="targetPoint" />
          </mxGeometry>
        </mxCell>
        <mxCell id="a5ivobwAdbOrBLl5-m_z-61" value="" style="endArrow=classic;html=1;rounded=0;exitX=0.5;exitY=1;exitDx=0;exitDy=0;strokeWidth=3;" edge="1" parent="1" source="a5ivobwAdbOrBLl5-m_z-37" target="a5ivobwAdbOrBLl5-m_z-42">
          <mxGeometry width="50" height="50" relative="1" as="geometry">
            <mxPoint x="420" y="900" as="sourcePoint" />
            <mxPoint x="460" y="900" as="targetPoint" />
          </mxGeometry>
        </mxCell>
        <mxCell id="a5ivobwAdbOrBLl5-m_z-62" value="" style="endArrow=classic;html=1;rounded=0;exitX=0.5;exitY=0;exitDx=0;exitDy=0;entryX=0.5;entryY=1;entryDx=0;entryDy=0;strokeWidth=3;" edge="1" parent="1" source="a5ivobwAdbOrBLl5-m_z-49" target="a5ivobwAdbOrBLl5-m_z-42">
          <mxGeometry width="50" height="50" relative="1" as="geometry">
            <mxPoint x="510" y="910" as="sourcePoint" />
            <mxPoint x="510" y="955" as="targetPoint" />
          </mxGeometry>
        </mxCell>
        <mxCell id="a5ivobwAdbOrBLl5-m_z-63" value="" style="endArrow=classic;html=1;rounded=0;exitX=1;exitY=0.5;exitDx=0;exitDy=0;entryX=0.5;entryY=0;entryDx=0;entryDy=0;edgeStyle=orthogonalEdgeStyle;strokeWidth=3;" edge="1" parent="1" source="a5ivobwAdbOrBLl5-m_z-37" target="a5ivobwAdbOrBLl5-m_z-52">
          <mxGeometry width="50" height="50" relative="1" as="geometry">
            <mxPoint x="510" y="910" as="sourcePoint" />
            <mxPoint x="510" y="955" as="targetPoint" />
          </mxGeometry>
        </mxCell>
        <mxCell id="a5ivobwAdbOrBLl5-m_z-64" value="" style="endArrow=classic;html=1;rounded=0;exitX=1;exitY=0.5;exitDx=0;exitDy=0;entryX=0.5;entryY=1;entryDx=0;entryDy=0;edgeStyle=orthogonalEdgeStyle;strokeWidth=3;" edge="1" parent="1" source="a5ivobwAdbOrBLl5-m_z-49" target="a5ivobwAdbOrBLl5-m_z-52">
          <mxGeometry width="50" height="50" relative="1" as="geometry">
            <mxPoint x="570" y="890" as="sourcePoint" />
            <mxPoint x="655" y="950" as="targetPoint" />
          </mxGeometry>
        </mxCell>
        <mxCell id="a5ivobwAdbOrBLl5-m_z-65" value="" style="endArrow=classic;html=1;rounded=0;exitX=1;exitY=0.5;exitDx=0;exitDy=0;entryX=0.5;entryY=1;entryDx=0;entryDy=0;strokeWidth=3;" edge="1" parent="1" source="a5ivobwAdbOrBLl5-m_z-52" target="a5ivobwAdbOrBLl5-m_z-53">
          <mxGeometry width="50" height="50" relative="1" as="geometry">
            <mxPoint x="410" y="890" as="sourcePoint" />
            <mxPoint x="450" y="890" as="targetPoint" />
          </mxGeometry>
        </mxCell>
        <mxCell id="a5ivobwAdbOrBLl5-m_z-66" value="" style="endArrow=classic;html=1;rounded=0;exitX=0.5;exitY=0;exitDx=0;exitDy=0;entryX=0.5;entryY=1;entryDx=0;entryDy=0;strokeWidth=3;" edge="1" parent="1" source="a5ivobwAdbOrBLl5-m_z-53" target="a5ivobwAdbOrBLl5-m_z-54">
          <mxGeometry width="50" height="50" relative="1" as="geometry">
            <mxPoint x="680" y="975" as="sourcePoint" />
            <mxPoint x="710" y="975" as="targetPoint" />
          </mxGeometry>
        </mxCell>
        <mxCell id="a5ivobwAdbOrBLl5-m_z-67" value="" style="endArrow=classic;html=1;rounded=0;exitX=0.5;exitY=0;exitDx=0;exitDy=0;entryX=0.5;entryY=1;entryDx=0;entryDy=0;strokeWidth=3;" edge="1" parent="1" source="a5ivobwAdbOrBLl5-m_z-54" target="a5ivobwAdbOrBLl5-m_z-55">
          <mxGeometry width="50" height="50" relative="1" as="geometry">
            <mxPoint x="750" y="975" as="sourcePoint" />
            <mxPoint x="780" y="974" as="targetPoint" />
          </mxGeometry>
        </mxCell>
        <mxCell id="a5ivobwAdbOrBLl5-m_z-68" value="" style="endArrow=classic;html=1;rounded=0;exitX=0.5;exitY=0;exitDx=0;exitDy=0;entryX=0;entryY=0.5;entryDx=0;entryDy=0;strokeWidth=3;" edge="1" parent="1" source="a5ivobwAdbOrBLl5-m_z-55" target="a5ivobwAdbOrBLl5-m_z-56">
          <mxGeometry width="50" height="50" relative="1" as="geometry">
            <mxPoint x="820" y="974" as="sourcePoint" />
            <mxPoint x="850" y="974" as="targetPoint" />
          </mxGeometry>
        </mxCell>
        <mxCell id="9l8rEriheZmPfH-iLeSf-2" value="&lt;font style=&quot;font-size: 17px;&quot;&gt;&lt;b&gt;share weight&lt;/b&gt;&lt;/font&gt;" style="text;html=1;align=center;verticalAlign=middle;resizable=0;points=[];autosize=1;strokeColor=none;fillColor=none;" vertex="1" parent="1">
          <mxGeometry x="190" y="955" width="130" height="30" as="geometry" />
        </mxCell>
        <mxCell id="qataK51UE6pieKw9F09s-2" value="" style="group" connectable="0" vertex="1" parent="1">
          <mxGeometry x="-430" y="840" width="620" height="420" as="geometry" />
        </mxCell>
        <mxCell id="a5ivobwAdbOrBLl5-m_z-71" value="" style="rounded=0;whiteSpace=wrap;html=1;strokeWidth=2;" vertex="1" parent="qataK51UE6pieKw9F09s-2">
          <mxGeometry x="430" y="110" width="190" height="210" as="geometry" />
        </mxCell>
        <mxCell id="a5ivobwAdbOrBLl5-m_z-18" value="&lt;b style=&quot;border-color: var(--border-color);&quot;&gt;&lt;font style=&quot;border-color: var(--border-color); font-size: 18px;&quot;&gt;postText&lt;/font&gt;&lt;/b&gt;" style="ellipse;whiteSpace=wrap;html=1;fillColor=#dae8fc;strokeColor=#6c8ebf;" vertex="1" parent="qataK51UE6pieKw9F09s-2">
          <mxGeometry x="440" width="170" height="80" as="geometry" />
        </mxCell>
        <mxCell id="a5ivobwAdbOrBLl5-m_z-24" value="&lt;b style=&quot;border-color: var(--border-color);&quot;&gt;&lt;font style=&quot;border-color: var(--border-color); font-size: 18px;&quot;&gt;TargetParagraph&lt;/font&gt;&lt;/b&gt;" style="ellipse;whiteSpace=wrap;html=1;fillColor=#dae8fc;strokeColor=#6c8ebf;" vertex="1" parent="qataK51UE6pieKw9F09s-2">
          <mxGeometry x="440" y="130" width="170" height="80" as="geometry" />
        </mxCell>
        <mxCell id="a5ivobwAdbOrBLl5-m_z-25" value="&lt;b style=&quot;border-color: var(--border-color);&quot;&gt;&lt;font style=&quot;border-color: var(--border-color); font-size: 18px;&quot;&gt;Summary&lt;/font&gt;&lt;/b&gt;" style="ellipse;whiteSpace=wrap;html=1;fillColor=#dae8fc;strokeColor=#6c8ebf;" vertex="1" parent="qataK51UE6pieKw9F09s-2">
          <mxGeometry x="440" y="220" width="170" height="80" as="geometry" />
        </mxCell>
        <mxCell id="a5ivobwAdbOrBLl5-m_z-57" value="" style="endArrow=classic;html=1;rounded=0;exitX=1;exitY=0.5;exitDx=0;exitDy=0;entryX=0;entryY=0.5;entryDx=0;entryDy=0;strokeWidth=3;" edge="1" parent="qataK51UE6pieKw9F09s-2" source="a5ivobwAdbOrBLl5-m_z-18" target="a5ivobwAdbOrBLl5-m_z-22">
          <mxGeometry width="50" height="50" relative="1" as="geometry">
            <mxPoint x="620" y="-10" as="sourcePoint" />
            <mxPoint x="670" y="-60" as="targetPoint" />
          </mxGeometry>
        </mxCell>
        <mxCell id="a5ivobwAdbOrBLl5-m_z-72" value="" style="endArrow=classic;html=1;rounded=0;exitX=1.006;exitY=0.476;exitDx=0;exitDy=0;entryX=0;entryY=0.5;entryDx=0;entryDy=0;exitPerimeter=0;strokeWidth=3;" edge="1" parent="qataK51UE6pieKw9F09s-2" source="a5ivobwAdbOrBLl5-m_z-71" target="a5ivobwAdbOrBLl5-m_z-47">
          <mxGeometry width="50" height="50" relative="1" as="geometry">
            <mxPoint x="620" y="50" as="sourcePoint" />
            <mxPoint x="690" y="50" as="targetPoint" />
          </mxGeometry>
        </mxCell>
        <mxCell id="a5ivobwAdbOrBLl5-m_z-76" value="" style="group" connectable="0" vertex="1" parent="qataK51UE6pieKw9F09s-2">
          <mxGeometry y="105" width="610" height="310" as="geometry" />
        </mxCell>
        <mxCell id="a5ivobwAdbOrBLl5-m_z-28" value="" style="rounded=0;whiteSpace=wrap;html=1;fillColor=#FFFFFF;strokeColor=#666666;fontColor=#333333;strokeWidth=2;" vertex="1" parent="a5ivobwAdbOrBLl5-m_z-76">
          <mxGeometry x="205" width="200" height="310" as="geometry" />
        </mxCell>
        <mxCell id="a5ivobwAdbOrBLl5-m_z-5" value="&lt;b style=&quot;border-color: var(--border-color);&quot;&gt;&lt;font style=&quot;border-color: var(--border-color); font-size: 18px;&quot;&gt;TextRank&lt;/font&gt;&lt;/b&gt;" style="rounded=1;whiteSpace=wrap;html=1;fillColor=#fff2cc;strokeColor=#d6b656;" vertex="1" parent="a5ivobwAdbOrBLl5-m_z-76">
          <mxGeometry x="240" y="35" width="130" height="60" as="geometry" />
        </mxCell>
        <mxCell id="a5ivobwAdbOrBLl5-m_z-6" value="&lt;b style=&quot;border-color: var(--border-color);&quot;&gt;&lt;font style=&quot;border-color: var(--border-color); font-size: 18px;&quot;&gt;BART&lt;/font&gt;&lt;/b&gt;" style="rounded=1;whiteSpace=wrap;html=1;fillColor=#fff2cc;strokeColor=#d6b656;" vertex="1" parent="a5ivobwAdbOrBLl5-m_z-76">
          <mxGeometry x="240" y="125" width="130" height="60" as="geometry" />
        </mxCell>
        <mxCell id="a5ivobwAdbOrBLl5-m_z-7" value="&lt;b&gt;&lt;font style=&quot;font-size: 18px;&quot;&gt;PEGASUS&lt;/font&gt;&lt;/b&gt;&lt;span id=&quot;docs-internal-guid-6a981812-7fff-83d3-3f99-3e7ef168fae3&quot;&gt;&lt;/span&gt;&lt;span id=&quot;docs-internal-guid-2316a558-7fff-133b-0325-ef83b84ddd15&quot;&gt;&lt;/span&gt;&lt;span id=&quot;docs-internal-guid-2316a558-7fff-133b-0325-ef83b84ddd15&quot;&gt;&lt;/span&gt;&lt;span id=&quot;docs-internal-guid-2316a558-7fff-133b-0325-ef83b84ddd15&quot;&gt;&lt;/span&gt;" style="rounded=1;whiteSpace=wrap;html=1;fillColor=#fff2cc;strokeColor=#d6b656;" vertex="1" parent="a5ivobwAdbOrBLl5-m_z-76">
          <mxGeometry x="240" y="215" width="130" height="60" as="geometry" />
        </mxCell>
        <mxCell id="a5ivobwAdbOrBLl5-m_z-19" value="&lt;b style=&quot;border-color: var(--border-color);&quot;&gt;&lt;font style=&quot;border-color: var(--border-color); font-size: 18px;&quot;&gt;TargetParagraph&lt;/font&gt;&lt;/b&gt;" style="ellipse;whiteSpace=wrap;html=1;fillColor=#dae8fc;strokeColor=#6c8ebf;" vertex="1" parent="a5ivobwAdbOrBLl5-m_z-76">
          <mxGeometry y="115" width="170" height="80" as="geometry" />
        </mxCell>
        <mxCell id="a5ivobwAdbOrBLl5-m_z-20" value="&lt;b style=&quot;border-color: var(--border-color);&quot;&gt;&lt;font style=&quot;border-color: var(--border-color); font-size: 18px;&quot;&gt;Summary&lt;/font&gt;&lt;/b&gt;" style="ellipse;whiteSpace=wrap;html=1;fillColor=#dae8fc;strokeColor=#6c8ebf;" vertex="1" parent="a5ivobwAdbOrBLl5-m_z-76">
          <mxGeometry x="440" y="115" width="170" height="80" as="geometry" />
        </mxCell>
        <mxCell id="a5ivobwAdbOrBLl5-m_z-29" value="" style="shape=flexArrow;endArrow=classic;html=1;rounded=0;strokeColor=#000000;fillColor=#000000;endWidth=15.183673469387754;endSize=3.382857142857143;width=11.428571428571429;" edge="1" parent="a5ivobwAdbOrBLl5-m_z-76">
          <mxGeometry width="50" height="50" relative="1" as="geometry">
            <mxPoint x="180" y="154.70999999999998" as="sourcePoint" />
            <mxPoint x="230" y="154.70999999999998" as="targetPoint" />
          </mxGeometry>
        </mxCell>
        <mxCell id="a5ivobwAdbOrBLl5-m_z-32" value="" style="shape=flexArrow;endArrow=classic;html=1;rounded=0;strokeColor=#000000;fillColor=#000000;endWidth=15.183673469387754;endSize=3.382857142857143;width=11.428571428571429;" edge="1" parent="a5ivobwAdbOrBLl5-m_z-76">
          <mxGeometry width="50" height="50" relative="1" as="geometry">
            <mxPoint x="380" y="154.70999999999998" as="sourcePoint" />
            <mxPoint x="430" y="154.70999999999998" as="targetPoint" />
          </mxGeometry>
        </mxCell>
      </root>
    </mxGraphModel>
  </diagram>
</mxfile>
